PathFileType	4	(X/Y/Z)	C:\Users\chris\Documents\GitHub\baseballds\vids\pitch1_Sports2D\pitch1_Sports2D_px_person00.trc
DataRate	CameraRate	NumFrames	NumMarkers	Units	OrigDataRate	OrigDataStartFrame	OrigNumFrames
30	30	7	22	m	30	19	154
Frame#	Time	Hip			RHip			RKnee			RAnkle			RBigToe			RSmallToe			RHeel			LHip			LKnee			LAnkle			LBigToe			LSmallToe			LHeel			Neck			Head			Nose			RShoulder			RElbow			RWrist			LShoulder			LElbow			LWrist		
		X1	Y1	Z1	X2	Y2	Z2	X3	Y3	Z3	X4	Y4	Z4	X5	Y5	Z5	X6	Y6	Z6	X7	Y7	Z7	X8	Y8	Z8	X9	Y9	Z9	X10	Y10	Z10	X11	Y11	Z11	X12	Y12	Z12	X13	Y13	Z13	X14	Y14	Z14	X15	Y15	Z15	X16	Y16	Z16	X17	Y17	Z17	X18	Y18	Z18	X19	Y19	Z19	X20	Y20	Z20	X21	Y21	Z21	X22	Y22	Z22
19	0.6333333333333333	702.7470005115538	540.2197682572843	0.0	652.6796695188661	555.9737207933221	0.0	658.4410107951153	745.06597856338	0.0	658.438537425715	902.221967456412	0.0	671.8982164199808	966.7668459536562	0.0	639.9305897265931	963.1646915877293	0.0	665.9678478281523	924.352750348934	0.0	753.9278459024648	555.2745774696556	0.0	765.5868584258611	739.3735066310365	0.0	797.3674347803378	895.0295839456661	0.0	764.6443796491214	958.7237840733258	0.0	799.0626083474007	956.7203768677379	0.0	808.998050229719	918.4989850918664	0.0	701.342310793872	264.04018611469695	0.0	739.8698093852786	145.32207432088538	0.0	770.4580779095785	226.22508926315635	0.0	608.2196976264584	304.77917938225914	0.0	572.2376065266258	437.76457475019305	0.0	657.824017059997	440.9504329623181	0.0	790.5364020765248	310.62791759341815	0.0	821.9118785923955	437.9996673644604	0.0	765.1125112431224	479.5410288330281	0.0
20	0.6666666666666666	703.9756330426341	540.9869883378226	0.0	653.4989526101098	557.3016088443528	0.0	659.6119280384316	745.9557823709049	0.0	659.3822733680892	902.7540580102403	0.0	671.1322444022785	968.240411420469	0.0	639.2990373874696	964.1277089376478	0.0	666.9371095018996	924.4137724551757	0.0	754.3942321291788	556.087596636448	0.0	766.3268054101075	739.9675932271882	0.0	797.967282610659	895.2380017006967	0.0	764.7203906359489	958.1386180428282	0.0	798.9267912236	956.6905391639898	0.0	808.8380072708776	919.5704338962273	0.0	702.1503500067361	264.6482017229052	0.0	740.9275572125216	146.30279637324566	0.0	770.6473613421845	227.10724824283065	0.0	609.3141637377327	304.847281192033	0.0	573.8554454046283	437.04198379530857	0.0	658.5521142966463	440.2975057270985	0.0	791.5662691992123	311.172690738748	0.0	823.0112636885781	438.808821075331	0.0	765.7018411710241	478.1706076840431	0.0
21	0.7	705.5095123297116	540.951902411892	0.0	654.5564176216785	557.5156339380948	0.0	660.9416572244545	745.7523830159545	0.0	660.2295349095407	903.4621058068276	0.0	670.268770383058	968.2403604250704	0.0	638.3050484860598	964.7678856548534	0.0	667.7802324216664	924.6527715106034	0.0	754.9801448221281	556.0565320702161	0.0	766.791518549215	740.6445836844439	0.0	798.776742299281	896.0966502805454	0.0	765.2732552800069	957.579062577962	0.0	799.7806782278042	956.5990929888419	0.0	809.1156703622464	920.6572815602215	0.0	703.2250733851495	265.3311028895771	0.0	740.7251693437784	147.75816337529938	0.0	770.2426709939886	227.8549880702907	0.0	610.478595658912	305.63722725925425	0.0	575.4099641170556	436.47943643506954	0.0	659.4435243320889	439.3562809695569	0.0	792.0794566400011	311.2547848300909	0.0	823.2050105376412	439.16863045857303	0.0	766.2070366846525	476.85649135644735	0.0
22	0.7333333333333333	706.9063857175213	540.3067204824459	0.0	655.8228971064854	556.6836577743823	0.0	662.0291776268277	745.1536907002173	0.0	661.0198034807822	904.9010049383077	0.0	670.1009401868455	968.2793028483687	0.0	638.3806656668812	965.682158398073	0.0	668.5517737711755	925.5387524316791	0.0	756.3612093307843	555.4234370119958	0.0	767.0450811425958	740.6741485098573	0.0	799.5071109857724	897.1886859101352	0.0	765.8834111248864	957.6326969619653	0.0	800.9095809142912	956.9495395480656	0.0	810.113209349829	921.4289347429357	0.0	704.7610526068394	265.8762791216532	0.0	740.3697814561347	148.4168629153173	0.0	770.2832374677657	227.93303217023956	0.0	611.7481316270508	306.7413419539673	0.0	576.7813495856284	436.2318647289986	0.0	659.9087096381875	438.41435186131537	0.0	792.5925490951709	311.2147466753122	0.0	823.0152958101154	439.51269243151023	0.0	766.8343535624208	475.66962854791365	0.0
23	0.7666666666666666	708.2290818104755	540.1182024758991	0.0	657.1484699011523	555.7988328924893	0.0	662.8190368849134	745.3305340886602	0.0	662.1197973592527	906.8375773977347	0.0	671.0787414762117	969.8567985076232	0.0	640.0921341350278	967.6181835438243	0.0	669.6572979176507	927.0531038030884	0.0	758.3558824012043	555.2762498225991	0.0	767.4755045115726	740.4614867950346	0.0	800.3025763592188	897.4969413078751	0.0	765.7719618090247	958.2750881807596	0.0	801.1800611966331	957.5100676419338	0.0	811.2922592507703	921.3038255174611	0.0	706.6927191485989	266.25907188104065	0.0	741.6035799574083	148.0621310762136	0.0	770.4885764123379	228.0894105640608	0.0	613.3451850733078	307.56208544327023	0.0	577.9617066196183	436.36232860377584	0.0	660.311719276436	437.50646101163045	0.0	793.7013099891576	311.5983824800578	0.0	823.7830898482282	440.15721398822205	0.0	767.9359540604975	473.40961692279416	0.0
24	0.8	709.5994791798444	540.6992568501353	0.0	658.0858994801067	555.1992291587213	0.0	663.2591068105556	745.9709291362599	0.0	663.0924660320917	907.6247738669429	0.0	672.5478918473382	971.7243239697438	0.0	642.20039645662	969.2298854669054	0.0	670.6399759249626	927.7619090567366	0.0	759.981366136117	555.681390338444	0.0	768.3662866330262	740.9821445663181	0.0	801.3886858090974	896.8956046247982	0.0	765.8082069071419	958.849551003268	0.0	801.1445011675188	957.7053583164616	0.0	812.1803002638219	919.9302332265139	0.0	709.0999590123515	266.7982902785223	0.0	744.2417723843712	147.25189579736403	0.0	768.5063582416425	229.00252883434078	0.0	615.3083018428281	307.72135729438344	0.0	579.103492484343	436.694776522383	0.0	661.4507235289607	437.0526747480726	0.0	795.7489950877597	312.2175568481739	0.0	825.4521030849322	440.7976035362776	0.0	768.8819997872348	470.8528773176622	0.0
25	0.8333333333333334	710.5522929986851	541.0678016775271	0.0	658.4263453932984	554.3208587579996	0.0	663.4065747561526	745.9305550305837	0.0	663.4818874551621	907.0727071678238	0.0	673.320627278428	972.0871403906859	0.0	643.2255342113508	968.7359056977841	0.0	671.0317319459588	927.2764407970508	0.0	760.3778586314305	555.5303313142701	0.0	769.7141555932525	741.8543288777583	0.0	802.4931612618284	896.4818358911225	0.0	767.5051090872878	959.0919612436047	0.0	802.0492475393723	957.7611601600875	0.0	812.8260099445768	918.4619585883045	0.0	711.6798761370626	267.66045634094337	0.0	746.0578493758371	146.56569614885495	0.0	762.3772363977212	230.72323038228137	0.0	617.054526302715	307.61190565443815	0.0	580.5488823457165	436.99779334448294	0.0	663.4152525906078	437.2981606749834	0.0	798.5300091108719	312.28796988140306	0.0	826.7498540234786	440.776970668064	0.0	769.3066025806745	470.10509557555156	0.0
